<?xml version="1.0" encoding="UTF-8" standalone="no"?>
<!DOCTYPE svg PUBLIC "-//W3C//DTD SVG 1.1//EN"
 "http://www.w3.org/Graphics/SVG/1.1/DTD/svg11.dtd">
<!-- Generated by graphviz version 2.40.1 (20161225.0304)
 -->
<!-- Title: comments Pages: 1 -->
<svg width="730pt" height="742pt"
 viewBox="0.00 0.00 730.00 742.00" xmlns="http://www.w3.org/2000/svg" xmlns:xlink="http://www.w3.org/1999/xlink">
<g id="graph0" class="graph" transform="scale(1 1) rotate(0) translate(4 738)">
<title>comments</title>
<polygon fill="#ffffff" stroke="transparent" points="-4,4 -4,-738 726,-738 726,4 -4,4"/>
<!-- comments -->
<g id="node1" class="node">
<title>comments</title>
<polygon fill="#efefef" stroke="transparent" points="265,-652.5 265,-687.5 459,-687.5 459,-652.5 265,-652.5"/>
<polygon fill="none" stroke="#000000" points="265,-652.5 265,-687.5 459,-687.5 459,-652.5 265,-652.5"/>
<text text-anchor="start" x="271.8705" y="-665.3" font-family="Arial Bold" font-size="18.00" fill="#000000">comments</text>
<text text-anchor="start" x="354.8757" y="-665.3" font-family="Arial" font-size="14.00" fill="#000000"> </text>
<text text-anchor="start" x="358.7663" y="-665.3" font-family="Arial" font-size="14.00" fill="#666666">[BASE TABLE]</text>
<polygon fill="none" stroke="#000000" points="265,-622.5 265,-652.5 459,-652.5 459,-622.5 265,-622.5"/>
<text text-anchor="start" x="272" y="-633.9" font-family="Arial" font-size="14.00" fill="#000000">id </text>
<text text-anchor="start" x="286.7798" y="-633.9" font-family="Arial" font-size="14.00" fill="#666666">[varchar(10)]</text>
<polygon fill="none" stroke="#000000" points="265,-592.5 265,-622.5 459,-622.5 459,-592.5 265,-592.5"/>
<text text-anchor="start" x="272" y="-603.9" font-family="Arial" font-size="14.00" fill="#000000">created_at </text>
<text text-anchor="start" x="342.028" y="-603.9" font-family="Arial" font-size="14.00" fill="#666666">[datetime(3)]</text>
<polygon fill="none" stroke="#000000" points="265,-562.5 265,-592.5 459,-592.5 459,-562.5 265,-562.5"/>
<text text-anchor="start" x="272" y="-573.9" font-family="Arial" font-size="14.00" fill="#000000">updated_at </text>
<text text-anchor="start" x="345.9326" y="-573.9" font-family="Arial" font-size="14.00" fill="#666666">[datetime(3)]</text>
<polygon fill="none" stroke="#000000" points="265,-532.5 265,-562.5 459,-562.5 459,-532.5 265,-532.5"/>
<text text-anchor="start" x="272" y="-543.9" font-family="Arial" font-size="14.00" fill="#000000">deleted_at </text>
<text text-anchor="start" x="341.2566" y="-543.9" font-family="Arial" font-size="14.00" fill="#666666">[datetime(3)]</text>
<polygon fill="none" stroke="#000000" points="265,-502.5 265,-532.5 459,-532.5 459,-502.5 265,-502.5"/>
<text text-anchor="start" x="272" y="-513.9" font-family="Arial" font-size="14.00" fill="#000000">comment </text>
<text text-anchor="start" x="333.4502" y="-513.9" font-family="Arial" font-size="14.00" fill="#666666">[varchar(255)]</text>
<polygon fill="none" stroke="#000000" points="265,-472.5 265,-502.5 459,-502.5 459,-472.5 265,-472.5"/>
<text text-anchor="start" x="272" y="-483.9" font-family="Arial" font-size="14.00" fill="#000000">snippet_id </text>
<text text-anchor="start" x="339.69" y="-483.9" font-family="Arial" font-size="14.00" fill="#666666">[varchar(10)]</text>
<polygon fill="none" stroke="#000000" points="265,-442.5 265,-472.5 459,-472.5 459,-442.5 265,-442.5"/>
<text text-anchor="start" x="272" y="-453.9" font-family="Arial" font-size="14.00" fill="#000000">user </text>
<text text-anchor="start" x="303.1164" y="-453.9" font-family="Arial" font-size="14.00" fill="#666666">[varchar(20)]</text>
<polygon fill="none" stroke="#000000" stroke-width="3" points="263.5,-441.5 263.5,-689.5 460.5,-689.5 460.5,-441.5 263.5,-441.5"/>
</g>
<!-- snippets -->
<g id="node2" class="node">
<title>snippets</title>
<polygon fill="#efefef" stroke="transparent" points="135,-282.5 135,-317.5 313,-317.5 313,-282.5 135,-282.5"/>
<polygon fill="none" stroke="#000000" points="135,-282.5 135,-317.5 313,-317.5 313,-282.5 135,-282.5"/>
<text text-anchor="start" x="141.8625" y="-295.3" font-family="Arial Bold" font-size="18.00" fill="#000000">snippets</text>
<text text-anchor="start" x="208.8837" y="-295.3" font-family="Arial" font-size="14.00" fill="#000000"> </text>
<text text-anchor="start" x="212.7743" y="-295.3" font-family="Arial" font-size="14.00" fill="#666666">[BASE TABLE]</text>
<polygon fill="none" stroke="#000000" points="135,-252.5 135,-282.5 313,-282.5 313,-252.5 135,-252.5"/>
<text text-anchor="start" x="142" y="-263.9" font-family="Arial" font-size="14.00" fill="#000000">id </text>
<text text-anchor="start" x="156.7798" y="-263.9" font-family="Arial" font-size="14.00" fill="#666666">[varchar(10)]</text>
<polygon fill="none" stroke="#000000" points="135,-222.5 135,-252.5 313,-252.5 313,-222.5 135,-222.5"/>
<text text-anchor="start" x="142" y="-233.9" font-family="Arial" font-size="14.00" fill="#000000">created_at </text>
<text text-anchor="start" x="212.028" y="-233.9" font-family="Arial" font-size="14.00" fill="#666666">[datetime(3)]</text>
<polygon fill="none" stroke="#000000" points="135,-192.5 135,-222.5 313,-222.5 313,-192.5 135,-192.5"/>
<text text-anchor="start" x="142" y="-203.9" font-family="Arial" font-size="14.00" fill="#000000">updated_at </text>
<text text-anchor="start" x="215.9326" y="-203.9" font-family="Arial" font-size="14.00" fill="#666666">[datetime(3)]</text>
<polygon fill="none" stroke="#000000" points="135,-162.5 135,-192.5 313,-192.5 313,-162.5 135,-162.5"/>
<text text-anchor="start" x="142" y="-173.9" font-family="Arial" font-size="14.00" fill="#000000">deleted_at </text>
<text text-anchor="start" x="211.2566" y="-173.9" font-family="Arial" font-size="14.00" fill="#666666">[datetime(3)]</text>
<polygon fill="none" stroke="#000000" points="135,-132.5 135,-162.5 313,-162.5 313,-132.5 135,-132.5"/>
<text text-anchor="start" x="142" y="-143.9" font-family="Arial" font-size="14.00" fill="#000000">title </text>
<text text-anchor="start" x="167.6676" y="-143.9" font-family="Arial" font-size="14.00" fill="#666666">[varchar(50)]</text>
<polygon fill="none" stroke="#000000" points="135,-102.5 135,-132.5 313,-132.5 313,-102.5 135,-102.5"/>
<text text-anchor="start" x="142" y="-113.9" font-family="Arial" font-size="14.00" fill="#000000">descb </text>
<text text-anchor="start" x="183.2384" y="-113.9" font-family="Arial" font-size="14.00" fill="#666666">[longtext]</text>
<polygon fill="none" stroke="#000000" points="135,-72.5 135,-102.5 313,-102.5 313,-72.5 135,-72.5"/>
<text text-anchor="start" x="142" y="-83.9" font-family="Arial" font-size="14.00" fill="#000000">snippet </text>
<text text-anchor="start" x="191.0182" y="-83.9" font-family="Arial" font-size="14.00" fill="#666666">[longtext]</text>
<polygon fill="none" stroke="#000000" points="135,-42.5 135,-72.5 313,-72.5 313,-42.5 135,-42.5"/>
<text text-anchor="start" x="142" y="-53.9" font-family="Arial" font-size="14.00" fill="#000000">user </text>
<text text-anchor="start" x="173.1164" y="-53.9" font-family="Arial" font-size="14.00" fill="#666666">[varchar(20)]</text>
</g>
<!-- comments&#45;&gt;snippets -->
<g id="edge1" class="edge">
<title>comments:snippet_id&#45;&gt;snippets:id</title>
<path fill="none" stroke="#000000" d="M254.9409,-486.0081C229.0799,-477.0276 248.7687,-429.4626 265,-397 276.9257,-373.1486 301.0743,-384.8514 313,-361 331.5842,-323.8316 354.5556,-267.5 313,-267.5"/>
<polygon fill="#000000" stroke="#000000" points="255.1082,-486.0328 264.3398,-491.9513 260.0541,-486.7664 265,-487.5 265,-487.5 265,-487.5 260.0541,-486.7664 265.6602,-483.0487 255.1082,-486.0328 255.1082,-486.0328"/>
<text text-anchor="start" x="7.158" y="-497.5" font-family="Arial" font-size="10.00" fill="#000000">FOREIGN KEY (snippet_id) REFERENCES snippets (id)</text>
</g>
<!-- users -->
<g id="node3" class="node">
<title>users</title>
<polygon fill="#efefef" stroke="transparent" points="417,-252.5 417,-287.5 583,-287.5 583,-252.5 417,-252.5"/>
<polygon fill="none" stroke="#000000" points="417,-252.5 417,-287.5 583,-287.5 583,-252.5 417,-252.5"/>
<text text-anchor="start" x="429.3708" y="-265.3" font-family="Arial Bold" font-size="18.00" fill="#000000">users</text>
<text text-anchor="start" x="473.3754" y="-265.3" font-family="Arial" font-size="14.00" fill="#000000"> </text>
<text text-anchor="start" x="477.266" y="-265.3" font-family="Arial" font-size="14.00" fill="#666666">[BASE TABLE]</text>
<polygon fill="none" stroke="#000000" points="417,-222.5 417,-252.5 583,-252.5 583,-222.5 417,-222.5"/>
<text text-anchor="start" x="424" y="-233.9" font-family="Arial" font-size="14.00" fill="#000000">username </text>
<text text-anchor="start" x="490.1248" y="-233.9" font-family="Arial" font-size="14.00" fill="#666666">[varchar(20)]</text>
<polygon fill="none" stroke="#000000" points="417,-192.5 417,-222.5 583,-222.5 583,-192.5 417,-192.5"/>
<text text-anchor="start" x="424" y="-203.9" font-family="Arial" font-size="14.00" fill="#000000">created_at </text>
<text text-anchor="start" x="494.028" y="-203.9" font-family="Arial" font-size="14.00" fill="#666666">[datetime(3)]</text>
<polygon fill="none" stroke="#000000" points="417,-162.5 417,-192.5 583,-192.5 583,-162.5 417,-162.5"/>
<text text-anchor="start" x="423.7518" y="-173.9" font-family="Arial" font-size="14.00" fill="#000000">updated_at </text>
<text text-anchor="start" x="497.6844" y="-173.9" font-family="Arial" font-size="14.00" fill="#666666">[datetime(3)]</text>
<polygon fill="none" stroke="#000000" points="417,-132.5 417,-162.5 583,-162.5 583,-132.5 417,-132.5"/>
<text text-anchor="start" x="424" y="-143.9" font-family="Arial" font-size="14.00" fill="#000000">deleted_at </text>
<text text-anchor="start" x="493.2566" y="-143.9" font-family="Arial" font-size="14.00" fill="#666666">[datetime(3)]</text>
<polygon fill="none" stroke="#000000" points="417,-102.5 417,-132.5 583,-132.5 583,-102.5 417,-102.5"/>
<text text-anchor="start" x="424" y="-113.9" font-family="Arial" font-size="14.00" fill="#000000">email </text>
<text text-anchor="start" x="461.3296" y="-113.9" font-family="Arial" font-size="14.00" fill="#666666">[varchar(191)]</text>
<polygon fill="none" stroke="#000000" points="417,-72.5 417,-102.5 583,-102.5 583,-72.5 417,-72.5"/>
<text text-anchor="start" x="424" y="-83.9" font-family="Arial" font-size="14.00" fill="#000000">password </text>
<text text-anchor="start" x="487.7882" y="-83.9" font-family="Arial" font-size="14.00" fill="#666666">[longtext]</text>
</g>
<!-- comments&#45;&gt;users -->
<g id="edge2" class="edge">
<title>comments:user&#45;&gt;users:username</title>
<path fill="none" stroke="#000000" d="M468.7555,-454.8916C479.8518,-446.3582 465.2844,-418.581 459,-397 449.279,-363.6175 426.721,-364.3825 417,-331 405.3816,-291.1017 375.4444,-237.5 417,-237.5"/>
<polygon fill="#000000" stroke="#000000" points="468.6607,-454.9169 457.8376,-453.1527 463.8303,-456.2085 459,-457.5 459,-457.5 459,-457.5 463.8303,-456.2085 460.1624,-461.8473 468.6607,-454.9169 468.6607,-454.9169"/>
<text text-anchor="start" x="466.276" y="-467.5" font-family="Arial" font-size="10.00" fill="#000000">FOREIGN KEY (user) REFERENCES users (username)</text>
</g>
</g>
</svg>
