<?xml version="1.0" encoding="UTF-8" standalone="no"?>
<!DOCTYPE svg PUBLIC "-//W3C//DTD SVG 1.1//EN"
 "http://www.w3.org/Graphics/SVG/1.1/DTD/svg11.dtd">
<!-- Generated by graphviz version 2.40.1 (20161225.0304)
 -->
<!-- Title: saveds Pages: 1 -->
<svg width="704pt" height="712pt"
 viewBox="0.00 0.00 704.00 712.00" xmlns="http://www.w3.org/2000/svg" xmlns:xlink="http://www.w3.org/1999/xlink">
<g id="graph0" class="graph" transform="scale(1 1) rotate(0) translate(4 708)">
<title>saveds</title>
<polygon fill="#ffffff" stroke="transparent" points="-4,4 -4,-708 700,-708 700,4 -4,4"/>
<!-- saveds -->
<g id="node1" class="node">
<title>saveds</title>
<polygon fill="#efefef" stroke="transparent" points="265,-622.5 265,-657.5 433,-657.5 433,-622.5 265,-622.5"/>
<polygon fill="none" stroke="#000000" points="265,-622.5 265,-657.5 433,-657.5 433,-622.5 265,-622.5"/>
<text text-anchor="start" x="271.8638" y="-635.3" font-family="Arial Bold" font-size="18.00" fill="#000000">saveds</text>
<text text-anchor="start" x="328.8824" y="-635.3" font-family="Arial" font-size="14.00" fill="#000000"> </text>
<text text-anchor="start" x="332.773" y="-635.3" font-family="Arial" font-size="14.00" fill="#666666">[BASE TABLE]</text>
<polygon fill="none" stroke="#000000" points="265,-592.5 265,-622.5 433,-622.5 433,-592.5 265,-592.5"/>
<text text-anchor="start" x="272" y="-603.9" font-family="Arial" font-size="14.00" fill="#000000">id </text>
<text text-anchor="start" x="286.7798" y="-603.9" font-family="Arial" font-size="14.00" fill="#666666">[varchar(10)]</text>
<polygon fill="none" stroke="#000000" points="265,-562.5 265,-592.5 433,-592.5 433,-562.5 265,-562.5"/>
<text text-anchor="start" x="272" y="-573.9" font-family="Arial" font-size="14.00" fill="#000000">created_at </text>
<text text-anchor="start" x="342.028" y="-573.9" font-family="Arial" font-size="14.00" fill="#666666">[datetime(3)]</text>
<polygon fill="none" stroke="#000000" points="265,-532.5 265,-562.5 433,-562.5 433,-532.5 265,-532.5"/>
<text text-anchor="start" x="272" y="-543.9" font-family="Arial" font-size="14.00" fill="#000000">updated_at </text>
<text text-anchor="start" x="345.9326" y="-543.9" font-family="Arial" font-size="14.00" fill="#666666">[datetime(3)]</text>
<polygon fill="none" stroke="#000000" points="265,-502.5 265,-532.5 433,-532.5 433,-502.5 265,-502.5"/>
<text text-anchor="start" x="272" y="-513.9" font-family="Arial" font-size="14.00" fill="#000000">deleted_at </text>
<text text-anchor="start" x="341.2566" y="-513.9" font-family="Arial" font-size="14.00" fill="#666666">[datetime(3)]</text>
<polygon fill="none" stroke="#000000" points="265,-472.5 265,-502.5 433,-502.5 433,-472.5 265,-472.5"/>
<text text-anchor="start" x="272" y="-483.9" font-family="Arial" font-size="14.00" fill="#000000">snippet_id </text>
<text text-anchor="start" x="339.69" y="-483.9" font-family="Arial" font-size="14.00" fill="#666666">[varchar(10)]</text>
<polygon fill="none" stroke="#000000" points="265,-442.5 265,-472.5 433,-472.5 433,-442.5 265,-442.5"/>
<text text-anchor="start" x="272" y="-453.9" font-family="Arial" font-size="14.00" fill="#000000">user </text>
<text text-anchor="start" x="303.1164" y="-453.9" font-family="Arial" font-size="14.00" fill="#666666">[varchar(20)]</text>
<polygon fill="none" stroke="#000000" stroke-width="3" points="263.5,-441.5 263.5,-659.5 434.5,-659.5 434.5,-441.5 263.5,-441.5"/>
</g>
<!-- snippets -->
<g id="node2" class="node">
<title>snippets</title>
<polygon fill="#efefef" stroke="transparent" points="122,-282.5 122,-317.5 300,-317.5 300,-282.5 122,-282.5"/>
<polygon fill="none" stroke="#000000" points="122,-282.5 122,-317.5 300,-317.5 300,-282.5 122,-282.5"/>
<text text-anchor="start" x="128.8625" y="-295.3" font-family="Arial Bold" font-size="18.00" fill="#000000">snippets</text>
<text text-anchor="start" x="195.8837" y="-295.3" font-family="Arial" font-size="14.00" fill="#000000"> </text>
<text text-anchor="start" x="199.7743" y="-295.3" font-family="Arial" font-size="14.00" fill="#666666">[BASE TABLE]</text>
<polygon fill="none" stroke="#000000" points="122,-252.5 122,-282.5 300,-282.5 300,-252.5 122,-252.5"/>
<text text-anchor="start" x="129" y="-263.9" font-family="Arial" font-size="14.00" fill="#000000">id </text>
<text text-anchor="start" x="143.7798" y="-263.9" font-family="Arial" font-size="14.00" fill="#666666">[varchar(10)]</text>
<polygon fill="none" stroke="#000000" points="122,-222.5 122,-252.5 300,-252.5 300,-222.5 122,-222.5"/>
<text text-anchor="start" x="129" y="-233.9" font-family="Arial" font-size="14.00" fill="#000000">created_at </text>
<text text-anchor="start" x="199.028" y="-233.9" font-family="Arial" font-size="14.00" fill="#666666">[datetime(3)]</text>
<polygon fill="none" stroke="#000000" points="122,-192.5 122,-222.5 300,-222.5 300,-192.5 122,-192.5"/>
<text text-anchor="start" x="129" y="-203.9" font-family="Arial" font-size="14.00" fill="#000000">updated_at </text>
<text text-anchor="start" x="202.9326" y="-203.9" font-family="Arial" font-size="14.00" fill="#666666">[datetime(3)]</text>
<polygon fill="none" stroke="#000000" points="122,-162.5 122,-192.5 300,-192.5 300,-162.5 122,-162.5"/>
<text text-anchor="start" x="129" y="-173.9" font-family="Arial" font-size="14.00" fill="#000000">deleted_at </text>
<text text-anchor="start" x="198.2566" y="-173.9" font-family="Arial" font-size="14.00" fill="#666666">[datetime(3)]</text>
<polygon fill="none" stroke="#000000" points="122,-132.5 122,-162.5 300,-162.5 300,-132.5 122,-132.5"/>
<text text-anchor="start" x="129" y="-143.9" font-family="Arial" font-size="14.00" fill="#000000">title </text>
<text text-anchor="start" x="154.6676" y="-143.9" font-family="Arial" font-size="14.00" fill="#666666">[varchar(50)]</text>
<polygon fill="none" stroke="#000000" points="122,-102.5 122,-132.5 300,-132.5 300,-102.5 122,-102.5"/>
<text text-anchor="start" x="129" y="-113.9" font-family="Arial" font-size="14.00" fill="#000000">descb </text>
<text text-anchor="start" x="170.2384" y="-113.9" font-family="Arial" font-size="14.00" fill="#666666">[longtext]</text>
<polygon fill="none" stroke="#000000" points="122,-72.5 122,-102.5 300,-102.5 300,-72.5 122,-72.5"/>
<text text-anchor="start" x="129" y="-83.9" font-family="Arial" font-size="14.00" fill="#000000">snippet </text>
<text text-anchor="start" x="178.0182" y="-83.9" font-family="Arial" font-size="14.00" fill="#666666">[longtext]</text>
<polygon fill="none" stroke="#000000" points="122,-42.5 122,-72.5 300,-72.5 300,-42.5 122,-42.5"/>
<text text-anchor="start" x="129" y="-53.9" font-family="Arial" font-size="14.00" fill="#000000">user </text>
<text text-anchor="start" x="160.1164" y="-53.9" font-family="Arial" font-size="14.00" fill="#666666">[varchar(20)]</text>
</g>
<!-- saveds&#45;&gt;snippets -->
<g id="edge1" class="edge">
<title>saveds:snippet_id&#45;&gt;snippets:id</title>
<path fill="none" stroke="#000000" d="M255.0147,-486.0415C229.5835,-477.2554 251.3472,-430.6285 265,-397 273.3943,-376.3237 291.6057,-381.6763 300,-361 315.6319,-322.4966 341.5556,-267.5 300,-267.5"/>
<polygon fill="#000000" stroke="#000000" points="255.105,-486.0546 264.3496,-491.9527 260.0525,-486.7773 265,-487.5 265,-487.5 265,-487.5 260.0525,-486.7773 265.6504,-483.0473 255.105,-486.0546 255.105,-486.0546"/>
<text text-anchor="start" x="7.158" y="-497.5" font-family="Arial" font-size="10.00" fill="#000000">FOREIGN KEY (snippet_id) REFERENCES snippets (id)</text>
</g>
<!-- users -->
<g id="node3" class="node">
<title>users</title>
<polygon fill="#efefef" stroke="transparent" points="404,-252.5 404,-287.5 570,-287.5 570,-252.5 404,-252.5"/>
<polygon fill="none" stroke="#000000" points="404,-252.5 404,-287.5 570,-287.5 570,-252.5 404,-252.5"/>
<text text-anchor="start" x="416.3708" y="-265.3" font-family="Arial Bold" font-size="18.00" fill="#000000">users</text>
<text text-anchor="start" x="460.3754" y="-265.3" font-family="Arial" font-size="14.00" fill="#000000"> </text>
<text text-anchor="start" x="464.266" y="-265.3" font-family="Arial" font-size="14.00" fill="#666666">[BASE TABLE]</text>
<polygon fill="none" stroke="#000000" points="404,-222.5 404,-252.5 570,-252.5 570,-222.5 404,-222.5"/>
<text text-anchor="start" x="411" y="-233.9" font-family="Arial" font-size="14.00" fill="#000000">username </text>
<text text-anchor="start" x="477.1248" y="-233.9" font-family="Arial" font-size="14.00" fill="#666666">[varchar(20)]</text>
<polygon fill="none" stroke="#000000" points="404,-192.5 404,-222.5 570,-222.5 570,-192.5 404,-192.5"/>
<text text-anchor="start" x="411" y="-203.9" font-family="Arial" font-size="14.00" fill="#000000">created_at </text>
<text text-anchor="start" x="481.028" y="-203.9" font-family="Arial" font-size="14.00" fill="#666666">[datetime(3)]</text>
<polygon fill="none" stroke="#000000" points="404,-162.5 404,-192.5 570,-192.5 570,-162.5 404,-162.5"/>
<text text-anchor="start" x="410.7518" y="-173.9" font-family="Arial" font-size="14.00" fill="#000000">updated_at </text>
<text text-anchor="start" x="484.6844" y="-173.9" font-family="Arial" font-size="14.00" fill="#666666">[datetime(3)]</text>
<polygon fill="none" stroke="#000000" points="404,-132.5 404,-162.5 570,-162.5 570,-132.5 404,-132.5"/>
<text text-anchor="start" x="411" y="-143.9" font-family="Arial" font-size="14.00" fill="#000000">deleted_at </text>
<text text-anchor="start" x="480.2566" y="-143.9" font-family="Arial" font-size="14.00" fill="#666666">[datetime(3)]</text>
<polygon fill="none" stroke="#000000" points="404,-102.5 404,-132.5 570,-132.5 570,-102.5 404,-102.5"/>
<text text-anchor="start" x="411" y="-113.9" font-family="Arial" font-size="14.00" fill="#000000">email </text>
<text text-anchor="start" x="448.3296" y="-113.9" font-family="Arial" font-size="14.00" fill="#666666">[varchar(191)]</text>
<polygon fill="none" stroke="#000000" points="404,-72.5 404,-102.5 570,-102.5 570,-72.5 404,-72.5"/>
<text text-anchor="start" x="411" y="-83.9" font-family="Arial" font-size="14.00" fill="#000000">password </text>
<text text-anchor="start" x="474.7882" y="-83.9" font-family="Arial" font-size="14.00" fill="#666666">[longtext]</text>
</g>
<!-- saveds&#45;&gt;users -->
<g id="edge2" class="edge">
<title>saveds:user&#45;&gt;users:username</title>
<path fill="none" stroke="#000000" d="M442.9138,-454.6839C453.0133,-445.9814 437.5765,-418.792 433,-397 426.415,-365.6439 410.585,-362.3561 404,-331 395.4593,-290.3316 362.4444,-237.5 404,-237.5"/>
<polygon fill="#000000" stroke="#000000" points="442.6194,-454.7675 431.7704,-453.1712 437.8097,-456.1337 433,-457.5 433,-457.5 433,-457.5 437.8097,-456.1337 434.2296,-461.8288 442.6194,-454.7675 442.6194,-454.7675"/>
<text text-anchor="start" x="440.276" y="-467.5" font-family="Arial" font-size="10.00" fill="#000000">FOREIGN KEY (user) REFERENCES users (username)</text>
</g>
</g>
</svg>
