<?xml version="1.0" encoding="UTF-8" standalone="no"?>
<!DOCTYPE svg PUBLIC "-//W3C//DTD SVG 1.1//EN"
 "http://www.w3.org/Graphics/SVG/1.1/DTD/svg11.dtd">
<!-- Generated by graphviz version 2.40.1 (20161225.0304)
 -->
<!-- Title: twilux Pages: 1 -->
<svg width="836pt" height="1073pt"
 viewBox="0.00 0.00 836.00 1073.00" xmlns="http://www.w3.org/2000/svg" xmlns:xlink="http://www.w3.org/1999/xlink">
<g id="graph0" class="graph" transform="scale(1 1) rotate(0) translate(4 1069)">
<title>twilux</title>
<polygon fill="#ffffff" stroke="transparent" points="-4,4 -4,-1069 832,-1069 832,4 -4,4"/>
<!-- comments -->
<g id="node1" class="node">
<title>comments</title>
<polygon fill="#efefef" stroke="transparent" points="166,-986.5 166,-1021.5 360,-1021.5 360,-986.5 166,-986.5"/>
<polygon fill="none" stroke="#000000" points="166,-986.5 166,-1021.5 360,-1021.5 360,-986.5 166,-986.5"/>
<text text-anchor="start" x="172.8705" y="-999.3" font-family="Arial Bold" font-size="18.00" fill="#000000">comments</text>
<text text-anchor="start" x="255.8757" y="-999.3" font-family="Arial" font-size="14.00" fill="#000000"> </text>
<text text-anchor="start" x="259.7663" y="-999.3" font-family="Arial" font-size="14.00" fill="#666666">[BASE TABLE]</text>
<polygon fill="none" stroke="#000000" points="166,-956.5 166,-986.5 360,-986.5 360,-956.5 166,-956.5"/>
<text text-anchor="start" x="173" y="-967.9" font-family="Arial" font-size="14.00" fill="#000000">id </text>
<text text-anchor="start" x="187.7798" y="-967.9" font-family="Arial" font-size="14.00" fill="#666666">[varchar(10)]</text>
<polygon fill="none" stroke="#000000" points="166,-926.5 166,-956.5 360,-956.5 360,-926.5 166,-926.5"/>
<text text-anchor="start" x="173" y="-937.9" font-family="Arial" font-size="14.00" fill="#000000">created_at </text>
<text text-anchor="start" x="243.028" y="-937.9" font-family="Arial" font-size="14.00" fill="#666666">[datetime(3)]</text>
<polygon fill="none" stroke="#000000" points="166,-896.5 166,-926.5 360,-926.5 360,-896.5 166,-896.5"/>
<text text-anchor="start" x="173" y="-907.9" font-family="Arial" font-size="14.00" fill="#000000">updated_at </text>
<text text-anchor="start" x="246.9326" y="-907.9" font-family="Arial" font-size="14.00" fill="#666666">[datetime(3)]</text>
<polygon fill="none" stroke="#000000" points="166,-866.5 166,-896.5 360,-896.5 360,-866.5 166,-866.5"/>
<text text-anchor="start" x="173" y="-877.9" font-family="Arial" font-size="14.00" fill="#000000">deleted_at </text>
<text text-anchor="start" x="242.2566" y="-877.9" font-family="Arial" font-size="14.00" fill="#666666">[datetime(3)]</text>
<polygon fill="none" stroke="#000000" points="166,-836.5 166,-866.5 360,-866.5 360,-836.5 166,-836.5"/>
<text text-anchor="start" x="173" y="-847.9" font-family="Arial" font-size="14.00" fill="#000000">comment </text>
<text text-anchor="start" x="234.4502" y="-847.9" font-family="Arial" font-size="14.00" fill="#666666">[varchar(255)]</text>
<polygon fill="none" stroke="#000000" points="166,-806.5 166,-836.5 360,-836.5 360,-806.5 166,-806.5"/>
<text text-anchor="start" x="173" y="-817.9" font-family="Arial" font-size="14.00" fill="#000000">snippet_id </text>
<text text-anchor="start" x="240.69" y="-817.9" font-family="Arial" font-size="14.00" fill="#666666">[varchar(10)]</text>
<polygon fill="none" stroke="#000000" points="166,-776.5 166,-806.5 360,-806.5 360,-776.5 166,-776.5"/>
<text text-anchor="start" x="173" y="-787.9" font-family="Arial" font-size="14.00" fill="#000000">user </text>
<text text-anchor="start" x="204.1164" y="-787.9" font-family="Arial" font-size="14.00" fill="#666666">[varchar(20)]</text>
</g>
<!-- snippets -->
<g id="node3" class="node">
<title>snippets</title>
<polygon fill="#efefef" stroke="transparent" points="325,-619.5 325,-654.5 503,-654.5 503,-619.5 325,-619.5"/>
<polygon fill="none" stroke="#000000" points="325,-619.5 325,-654.5 503,-654.5 503,-619.5 325,-619.5"/>
<text text-anchor="start" x="331.8625" y="-632.3" font-family="Arial Bold" font-size="18.00" fill="#000000">snippets</text>
<text text-anchor="start" x="398.8837" y="-632.3" font-family="Arial" font-size="14.00" fill="#000000"> </text>
<text text-anchor="start" x="402.7743" y="-632.3" font-family="Arial" font-size="14.00" fill="#666666">[BASE TABLE]</text>
<polygon fill="none" stroke="#000000" points="325,-589.5 325,-619.5 503,-619.5 503,-589.5 325,-589.5"/>
<text text-anchor="start" x="332" y="-600.9" font-family="Arial" font-size="14.00" fill="#000000">id </text>
<text text-anchor="start" x="346.7798" y="-600.9" font-family="Arial" font-size="14.00" fill="#666666">[varchar(10)]</text>
<polygon fill="none" stroke="#000000" points="325,-559.5 325,-589.5 503,-589.5 503,-559.5 325,-559.5"/>
<text text-anchor="start" x="332" y="-570.9" font-family="Arial" font-size="14.00" fill="#000000">created_at </text>
<text text-anchor="start" x="402.028" y="-570.9" font-family="Arial" font-size="14.00" fill="#666666">[datetime(3)]</text>
<polygon fill="none" stroke="#000000" points="325,-529.5 325,-559.5 503,-559.5 503,-529.5 325,-529.5"/>
<text text-anchor="start" x="332" y="-540.9" font-family="Arial" font-size="14.00" fill="#000000">updated_at </text>
<text text-anchor="start" x="405.9326" y="-540.9" font-family="Arial" font-size="14.00" fill="#666666">[datetime(3)]</text>
<polygon fill="none" stroke="#000000" points="325,-499.5 325,-529.5 503,-529.5 503,-499.5 325,-499.5"/>
<text text-anchor="start" x="332" y="-510.9" font-family="Arial" font-size="14.00" fill="#000000">deleted_at </text>
<text text-anchor="start" x="401.2566" y="-510.9" font-family="Arial" font-size="14.00" fill="#666666">[datetime(3)]</text>
<polygon fill="none" stroke="#000000" points="325,-469.5 325,-499.5 503,-499.5 503,-469.5 325,-469.5"/>
<text text-anchor="start" x="332" y="-480.9" font-family="Arial" font-size="14.00" fill="#000000">title </text>
<text text-anchor="start" x="357.6676" y="-480.9" font-family="Arial" font-size="14.00" fill="#666666">[varchar(50)]</text>
<polygon fill="none" stroke="#000000" points="325,-439.5 325,-469.5 503,-469.5 503,-439.5 325,-439.5"/>
<text text-anchor="start" x="332" y="-450.9" font-family="Arial" font-size="14.00" fill="#000000">descb </text>
<text text-anchor="start" x="373.2384" y="-450.9" font-family="Arial" font-size="14.00" fill="#666666">[longtext]</text>
<polygon fill="none" stroke="#000000" points="325,-409.5 325,-439.5 503,-439.5 503,-409.5 325,-409.5"/>
<text text-anchor="start" x="332" y="-420.9" font-family="Arial" font-size="14.00" fill="#000000">snippet </text>
<text text-anchor="start" x="381.0182" y="-420.9" font-family="Arial" font-size="14.00" fill="#666666">[longtext]</text>
<polygon fill="none" stroke="#000000" points="325,-379.5 325,-409.5 503,-409.5 503,-379.5 325,-379.5"/>
<text text-anchor="start" x="332" y="-390.9" font-family="Arial" font-size="14.00" fill="#000000">user </text>
<text text-anchor="start" x="363.1164" y="-390.9" font-family="Arial" font-size="14.00" fill="#666666">[varchar(20)]</text>
</g>
<!-- comments&#45;&gt;snippets -->
<g id="edge1" class="edge">
<title>comments:snippet_id&#45;&gt;snippets:id</title>
<path fill="none" stroke="#000000" d="M369.9711,-819.9774C394.0604,-811.2049 373.143,-766.373 360,-734 351.6057,-713.3237 333.3943,-718.6763 325,-698 309.3681,-659.4966 283.4444,-604.5 325,-604.5"/>
<polygon fill="#000000" stroke="#000000" points="369.8854,-819.9904 359.3207,-817.0516 364.9427,-820.7452 360,-821.5 360,-821.5 360,-821.5 364.9427,-820.7452 360.6793,-825.9484 369.8854,-819.9904 369.8854,-819.9904"/>
<text text-anchor="start" x="367.158" y="-831.5" font-family="Arial" font-size="10.00" fill="#000000">FOREIGN KEY (snippet_id) REFERENCES snippets (id)</text>
</g>
<!-- users -->
<g id="node4" class="node">
<title>users</title>
<polygon fill="#efefef" stroke="transparent" points="331,-222.5 331,-257.5 497,-257.5 497,-222.5 331,-222.5"/>
<polygon fill="none" stroke="#000000" points="331,-222.5 331,-257.5 497,-257.5 497,-222.5 331,-222.5"/>
<text text-anchor="start" x="343.3708" y="-235.3" font-family="Arial Bold" font-size="18.00" fill="#000000">users</text>
<text text-anchor="start" x="387.3754" y="-235.3" font-family="Arial" font-size="14.00" fill="#000000"> </text>
<text text-anchor="start" x="391.266" y="-235.3" font-family="Arial" font-size="14.00" fill="#666666">[BASE TABLE]</text>
<polygon fill="none" stroke="#000000" points="331,-192.5 331,-222.5 497,-222.5 497,-192.5 331,-192.5"/>
<text text-anchor="start" x="338" y="-203.9" font-family="Arial" font-size="14.00" fill="#000000">username </text>
<text text-anchor="start" x="404.1248" y="-203.9" font-family="Arial" font-size="14.00" fill="#666666">[varchar(20)]</text>
<polygon fill="none" stroke="#000000" points="331,-162.5 331,-192.5 497,-192.5 497,-162.5 331,-162.5"/>
<text text-anchor="start" x="338" y="-173.9" font-family="Arial" font-size="14.00" fill="#000000">created_at </text>
<text text-anchor="start" x="408.028" y="-173.9" font-family="Arial" font-size="14.00" fill="#666666">[datetime(3)]</text>
<polygon fill="none" stroke="#000000" points="331,-132.5 331,-162.5 497,-162.5 497,-132.5 331,-132.5"/>
<text text-anchor="start" x="337.7518" y="-143.9" font-family="Arial" font-size="14.00" fill="#000000">updated_at </text>
<text text-anchor="start" x="411.6844" y="-143.9" font-family="Arial" font-size="14.00" fill="#666666">[datetime(3)]</text>
<polygon fill="none" stroke="#000000" points="331,-102.5 331,-132.5 497,-132.5 497,-102.5 331,-102.5"/>
<text text-anchor="start" x="338" y="-113.9" font-family="Arial" font-size="14.00" fill="#000000">deleted_at </text>
<text text-anchor="start" x="407.2566" y="-113.9" font-family="Arial" font-size="14.00" fill="#666666">[datetime(3)]</text>
<polygon fill="none" stroke="#000000" points="331,-72.5 331,-102.5 497,-102.5 497,-72.5 331,-72.5"/>
<text text-anchor="start" x="338" y="-83.9" font-family="Arial" font-size="14.00" fill="#000000">email </text>
<text text-anchor="start" x="375.3296" y="-83.9" font-family="Arial" font-size="14.00" fill="#666666">[varchar(191)]</text>
<polygon fill="none" stroke="#000000" points="331,-42.5 331,-72.5 497,-72.5 497,-42.5 331,-42.5"/>
<text text-anchor="start" x="338" y="-53.9" font-family="Arial" font-size="14.00" fill="#000000">password </text>
<text text-anchor="start" x="401.7882" y="-53.9" font-family="Arial" font-size="14.00" fill="#666666">[longtext]</text>
</g>
<!-- comments&#45;&gt;users -->
<g id="edge2" class="edge">
<title>comments:user&#45;&gt;users:username</title>
<path fill="none" stroke="#000000" d="M262.9041,-766.3966C258.1543,-513.5787 79.6693,-207.5 331,-207.5"/>
<polygon fill="#000000" stroke="#000000" points="262.905,-766.5005 258.5002,-776.5428 262.9525,-771.5002 263,-776.5 263,-776.5 263,-776.5 262.9525,-771.5002 267.4998,-776.4572 262.905,-766.5005 262.905,-766.5005"/>
<text text-anchor="start" x="7.276" y="-786.5" font-family="Arial" font-size="10.00" fill="#000000">FOREIGN KEY (user) REFERENCES users (username)</text>
</g>
<!-- saveds -->
<g id="node2" class="node">
<title>saveds</title>
<polygon fill="#efefef" stroke="transparent" points="481,-971.5 481,-1006.5 649,-1006.5 649,-971.5 481,-971.5"/>
<polygon fill="none" stroke="#000000" points="481,-971.5 481,-1006.5 649,-1006.5 649,-971.5 481,-971.5"/>
<text text-anchor="start" x="487.8638" y="-984.3" font-family="Arial Bold" font-size="18.00" fill="#000000">saveds</text>
<text text-anchor="start" x="544.8824" y="-984.3" font-family="Arial" font-size="14.00" fill="#000000"> </text>
<text text-anchor="start" x="548.773" y="-984.3" font-family="Arial" font-size="14.00" fill="#666666">[BASE TABLE]</text>
<polygon fill="none" stroke="#000000" points="481,-941.5 481,-971.5 649,-971.5 649,-941.5 481,-941.5"/>
<text text-anchor="start" x="488" y="-952.9" font-family="Arial" font-size="14.00" fill="#000000">id </text>
<text text-anchor="start" x="502.7798" y="-952.9" font-family="Arial" font-size="14.00" fill="#666666">[varchar(10)]</text>
<polygon fill="none" stroke="#000000" points="481,-911.5 481,-941.5 649,-941.5 649,-911.5 481,-911.5"/>
<text text-anchor="start" x="488" y="-922.9" font-family="Arial" font-size="14.00" fill="#000000">created_at </text>
<text text-anchor="start" x="558.028" y="-922.9" font-family="Arial" font-size="14.00" fill="#666666">[datetime(3)]</text>
<polygon fill="none" stroke="#000000" points="481,-881.5 481,-911.5 649,-911.5 649,-881.5 481,-881.5"/>
<text text-anchor="start" x="488" y="-892.9" font-family="Arial" font-size="14.00" fill="#000000">updated_at </text>
<text text-anchor="start" x="561.9326" y="-892.9" font-family="Arial" font-size="14.00" fill="#666666">[datetime(3)]</text>
<polygon fill="none" stroke="#000000" points="481,-851.5 481,-881.5 649,-881.5 649,-851.5 481,-851.5"/>
<text text-anchor="start" x="488" y="-862.9" font-family="Arial" font-size="14.00" fill="#000000">deleted_at </text>
<text text-anchor="start" x="557.2566" y="-862.9" font-family="Arial" font-size="14.00" fill="#666666">[datetime(3)]</text>
<polygon fill="none" stroke="#000000" points="481,-821.5 481,-851.5 649,-851.5 649,-821.5 481,-821.5"/>
<text text-anchor="start" x="488" y="-832.9" font-family="Arial" font-size="14.00" fill="#000000">snippet_id </text>
<text text-anchor="start" x="555.69" y="-832.9" font-family="Arial" font-size="14.00" fill="#666666">[varchar(10)]</text>
<polygon fill="none" stroke="#000000" points="481,-791.5 481,-821.5 649,-821.5 649,-791.5 481,-791.5"/>
<text text-anchor="start" x="488" y="-802.9" font-family="Arial" font-size="14.00" fill="#000000">user </text>
<text text-anchor="start" x="519.1164" y="-802.9" font-family="Arial" font-size="14.00" fill="#666666">[varchar(20)]</text>
</g>
<!-- saveds&#45;&gt;snippets -->
<g id="edge3" class="edge">
<title>saveds:snippet_id&#45;&gt;snippets:id</title>
<path fill="none" stroke="#000000" d="M470.8099,-835.5652C393.9752,-819.6007 602.7301,-604.5 503,-604.5"/>
<polygon fill="#000000" stroke="#000000" points="471.0418,-835.5864 480.5889,-840.9812 476.0209,-836.0432 481,-836.5 481,-836.5 481,-836.5 476.0209,-836.0432 481.4111,-832.0188 471.0418,-835.5864 471.0418,-835.5864"/>
<text text-anchor="start" x="488.158" y="-846.5" font-family="Arial" font-size="10.00" fill="#000000">FOREIGN KEY (snippet_id) REFERENCES snippets (id)</text>
</g>
<!-- saveds&#45;&gt;users -->
<g id="edge4" class="edge">
<title>saveds:user&#45;&gt;users:username</title>
<path fill="none" stroke="#000000" d="M565.0993,-781.1339C570.018,-521.7385 754.8642,-207.5 497,-207.5"/>
<polygon fill="#000000" stroke="#000000" points="565.0959,-781.5005 560.5002,-791.4568 565.0479,-786.5002 565,-791.5 565,-791.5 565,-791.5 565.0479,-786.5002 569.4998,-791.5432 565.0959,-781.5005 565.0959,-781.5005"/>
<text text-anchor="start" x="572.276" y="-801.5" font-family="Arial" font-size="10.00" fill="#000000">FOREIGN KEY (user) REFERENCES users (username)</text>
</g>
<!-- snippets&#45;&gt;users -->
<g id="edge5" class="edge">
<title>snippets:user&#45;&gt;users:username</title>
<path fill="none" stroke="#000000" d="M414.9965,-369.291C423.1034,-331.1714 478.4085,-344.173 497,-301 513.4358,-262.8329 538.5556,-207.5 497,-207.5"/>
<polygon fill="#000000" stroke="#000000" points="414.9716,-369.5473 409.5213,-379.0628 414.4858,-374.5237 414,-379.5 414,-379.5 414,-379.5 414.4858,-374.5237 418.4787,-379.9372 414.9716,-369.5473 414.9716,-369.5473"/>
<text text-anchor="start" x="158.276" y="-389.5" font-family="Arial" font-size="10.00" fill="#000000">FOREIGN KEY (user) REFERENCES users (username)</text>
</g>
</g>
</svg>
