<?xml version="1.0" encoding="UTF-8" standalone="no"?>
<!DOCTYPE svg PUBLIC "-//W3C//DTD SVG 1.1//EN"
 "http://www.w3.org/Graphics/SVG/1.1/DTD/svg11.dtd">
<!-- Generated by graphviz version 2.40.1 (20161225.0304)
 -->
<!-- Title: snippets Pages: 1 -->
<svg width="642pt" height="1079pt"
 viewBox="0.00 0.00 642.00 1079.00" xmlns="http://www.w3.org/2000/svg" xmlns:xlink="http://www.w3.org/1999/xlink">
<g id="graph0" class="graph" transform="scale(1 1) rotate(0) translate(4 1075)">
<title>snippets</title>
<polygon fill="#ffffff" stroke="transparent" points="-4,4 -4,-1075 638,-1075 638,4 -4,4"/>
<!-- snippets -->
<g id="node1" class="node">
<title>snippets</title>
<polygon fill="#efefef" stroke="transparent" points="221,-622.5 221,-657.5 399,-657.5 399,-622.5 221,-622.5"/>
<polygon fill="none" stroke="#000000" points="221,-622.5 221,-657.5 399,-657.5 399,-622.5 221,-622.5"/>
<text text-anchor="start" x="227.8625" y="-635.3" font-family="Arial Bold" font-size="18.00" fill="#000000">snippets</text>
<text text-anchor="start" x="294.8837" y="-635.3" font-family="Arial" font-size="14.00" fill="#000000"> </text>
<text text-anchor="start" x="298.7743" y="-635.3" font-family="Arial" font-size="14.00" fill="#666666">[BASE TABLE]</text>
<polygon fill="none" stroke="#000000" points="221,-592.5 221,-622.5 399,-622.5 399,-592.5 221,-592.5"/>
<text text-anchor="start" x="228" y="-603.9" font-family="Arial" font-size="14.00" fill="#000000">id </text>
<text text-anchor="start" x="242.7798" y="-603.9" font-family="Arial" font-size="14.00" fill="#666666">[varchar(10)]</text>
<polygon fill="none" stroke="#000000" points="221,-562.5 221,-592.5 399,-592.5 399,-562.5 221,-562.5"/>
<text text-anchor="start" x="228" y="-573.9" font-family="Arial" font-size="14.00" fill="#000000">created_at </text>
<text text-anchor="start" x="298.028" y="-573.9" font-family="Arial" font-size="14.00" fill="#666666">[datetime(3)]</text>
<polygon fill="none" stroke="#000000" points="221,-532.5 221,-562.5 399,-562.5 399,-532.5 221,-532.5"/>
<text text-anchor="start" x="228" y="-543.9" font-family="Arial" font-size="14.00" fill="#000000">updated_at </text>
<text text-anchor="start" x="301.9326" y="-543.9" font-family="Arial" font-size="14.00" fill="#666666">[datetime(3)]</text>
<polygon fill="none" stroke="#000000" points="221,-502.5 221,-532.5 399,-532.5 399,-502.5 221,-502.5"/>
<text text-anchor="start" x="228" y="-513.9" font-family="Arial" font-size="14.00" fill="#000000">deleted_at </text>
<text text-anchor="start" x="297.2566" y="-513.9" font-family="Arial" font-size="14.00" fill="#666666">[datetime(3)]</text>
<polygon fill="none" stroke="#000000" points="221,-472.5 221,-502.5 399,-502.5 399,-472.5 221,-472.5"/>
<text text-anchor="start" x="228" y="-483.9" font-family="Arial" font-size="14.00" fill="#000000">title </text>
<text text-anchor="start" x="253.6676" y="-483.9" font-family="Arial" font-size="14.00" fill="#666666">[varchar(50)]</text>
<polygon fill="none" stroke="#000000" points="221,-442.5 221,-472.5 399,-472.5 399,-442.5 221,-442.5"/>
<text text-anchor="start" x="228" y="-453.9" font-family="Arial" font-size="14.00" fill="#000000">descb </text>
<text text-anchor="start" x="269.2384" y="-453.9" font-family="Arial" font-size="14.00" fill="#666666">[longtext]</text>
<polygon fill="none" stroke="#000000" points="221,-412.5 221,-442.5 399,-442.5 399,-412.5 221,-412.5"/>
<text text-anchor="start" x="228" y="-423.9" font-family="Arial" font-size="14.00" fill="#000000">snippet </text>
<text text-anchor="start" x="277.0182" y="-423.9" font-family="Arial" font-size="14.00" fill="#666666">[longtext]</text>
<polygon fill="none" stroke="#000000" points="221,-382.5 221,-412.5 399,-412.5 399,-382.5 221,-382.5"/>
<text text-anchor="start" x="228" y="-393.9" font-family="Arial" font-size="14.00" fill="#000000">user </text>
<text text-anchor="start" x="259.1164" y="-393.9" font-family="Arial" font-size="14.00" fill="#666666">[varchar(20)]</text>
<polygon fill="none" stroke="#000000" stroke-width="3" points="219.5,-381.5 219.5,-659.5 400.5,-659.5 400.5,-381.5 219.5,-381.5"/>
</g>
<!-- users -->
<g id="node4" class="node">
<title>users</title>
<polygon fill="#efefef" stroke="transparent" points="227,-222.5 227,-257.5 393,-257.5 393,-222.5 227,-222.5"/>
<polygon fill="none" stroke="#000000" points="227,-222.5 227,-257.5 393,-257.5 393,-222.5 227,-222.5"/>
<text text-anchor="start" x="239.3708" y="-235.3" font-family="Arial Bold" font-size="18.00" fill="#000000">users</text>
<text text-anchor="start" x="283.3754" y="-235.3" font-family="Arial" font-size="14.00" fill="#000000"> </text>
<text text-anchor="start" x="287.266" y="-235.3" font-family="Arial" font-size="14.00" fill="#666666">[BASE TABLE]</text>
<polygon fill="none" stroke="#000000" points="227,-192.5 227,-222.5 393,-222.5 393,-192.5 227,-192.5"/>
<text text-anchor="start" x="234" y="-203.9" font-family="Arial" font-size="14.00" fill="#000000">username </text>
<text text-anchor="start" x="300.1248" y="-203.9" font-family="Arial" font-size="14.00" fill="#666666">[varchar(20)]</text>
<polygon fill="none" stroke="#000000" points="227,-162.5 227,-192.5 393,-192.5 393,-162.5 227,-162.5"/>
<text text-anchor="start" x="234" y="-173.9" font-family="Arial" font-size="14.00" fill="#000000">created_at </text>
<text text-anchor="start" x="304.028" y="-173.9" font-family="Arial" font-size="14.00" fill="#666666">[datetime(3)]</text>
<polygon fill="none" stroke="#000000" points="227,-132.5 227,-162.5 393,-162.5 393,-132.5 227,-132.5"/>
<text text-anchor="start" x="233.7518" y="-143.9" font-family="Arial" font-size="14.00" fill="#000000">updated_at </text>
<text text-anchor="start" x="307.6844" y="-143.9" font-family="Arial" font-size="14.00" fill="#666666">[datetime(3)]</text>
<polygon fill="none" stroke="#000000" points="227,-102.5 227,-132.5 393,-132.5 393,-102.5 227,-102.5"/>
<text text-anchor="start" x="234" y="-113.9" font-family="Arial" font-size="14.00" fill="#000000">deleted_at </text>
<text text-anchor="start" x="303.2566" y="-113.9" font-family="Arial" font-size="14.00" fill="#666666">[datetime(3)]</text>
<polygon fill="none" stroke="#000000" points="227,-72.5 227,-102.5 393,-102.5 393,-72.5 227,-72.5"/>
<text text-anchor="start" x="234" y="-83.9" font-family="Arial" font-size="14.00" fill="#000000">email </text>
<text text-anchor="start" x="271.3296" y="-83.9" font-family="Arial" font-size="14.00" fill="#666666">[varchar(191)]</text>
<polygon fill="none" stroke="#000000" points="227,-42.5 227,-72.5 393,-72.5 393,-42.5 227,-42.5"/>
<text text-anchor="start" x="234" y="-53.9" font-family="Arial" font-size="14.00" fill="#000000">password </text>
<text text-anchor="start" x="297.7882" y="-53.9" font-family="Arial" font-size="14.00" fill="#666666">[longtext]</text>
</g>
<!-- snippets&#45;&gt;users -->
<g id="edge3" class="edge">
<title>snippets:user&#45;&gt;users:username</title>
<path fill="none" stroke="#000000" d="M310.9977,-372.0832C319.1144,-333.0924 374.4824,-345.1352 393,-301 409.0775,-262.6806 434.5556,-207.5 393,-207.5"/>
<polygon fill="#000000" stroke="#000000" points="310.9535,-372.5456 305.5205,-382.0709 310.4768,-377.5228 310,-382.5 310,-382.5 310,-382.5 310.4768,-377.5228 314.4795,-382.9291 310.9535,-372.5456 310.9535,-372.5456"/>
<text text-anchor="start" x="54.276" y="-392.5" font-family="Arial" font-size="10.00" fill="#000000">FOREIGN KEY (user) REFERENCES users (username)</text>
</g>
<!-- comments -->
<g id="node2" class="node">
<title>comments</title>
<polygon fill="#efefef" stroke="transparent" points="71,-992.5 71,-1027.5 265,-1027.5 265,-992.5 71,-992.5"/>
<polygon fill="none" stroke="#000000" points="71,-992.5 71,-1027.5 265,-1027.5 265,-992.5 71,-992.5"/>
<text text-anchor="start" x="77.8705" y="-1005.3" font-family="Arial Bold" font-size="18.00" fill="#000000">comments</text>
<text text-anchor="start" x="160.8757" y="-1005.3" font-family="Arial" font-size="14.00" fill="#000000"> </text>
<text text-anchor="start" x="164.7663" y="-1005.3" font-family="Arial" font-size="14.00" fill="#666666">[BASE TABLE]</text>
<polygon fill="none" stroke="#000000" points="71,-962.5 71,-992.5 265,-992.5 265,-962.5 71,-962.5"/>
<text text-anchor="start" x="78" y="-973.9" font-family="Arial" font-size="14.00" fill="#000000">id </text>
<text text-anchor="start" x="92.7798" y="-973.9" font-family="Arial" font-size="14.00" fill="#666666">[varchar(10)]</text>
<polygon fill="none" stroke="#000000" points="71,-932.5 71,-962.5 265,-962.5 265,-932.5 71,-932.5"/>
<text text-anchor="start" x="78" y="-943.9" font-family="Arial" font-size="14.00" fill="#000000">created_at </text>
<text text-anchor="start" x="148.028" y="-943.9" font-family="Arial" font-size="14.00" fill="#666666">[datetime(3)]</text>
<polygon fill="none" stroke="#000000" points="71,-902.5 71,-932.5 265,-932.5 265,-902.5 71,-902.5"/>
<text text-anchor="start" x="78" y="-913.9" font-family="Arial" font-size="14.00" fill="#000000">updated_at </text>
<text text-anchor="start" x="151.9326" y="-913.9" font-family="Arial" font-size="14.00" fill="#666666">[datetime(3)]</text>
<polygon fill="none" stroke="#000000" points="71,-872.5 71,-902.5 265,-902.5 265,-872.5 71,-872.5"/>
<text text-anchor="start" x="78" y="-883.9" font-family="Arial" font-size="14.00" fill="#000000">deleted_at </text>
<text text-anchor="start" x="147.2566" y="-883.9" font-family="Arial" font-size="14.00" fill="#666666">[datetime(3)]</text>
<polygon fill="none" stroke="#000000" points="71,-842.5 71,-872.5 265,-872.5 265,-842.5 71,-842.5"/>
<text text-anchor="start" x="78" y="-853.9" font-family="Arial" font-size="14.00" fill="#000000">comment </text>
<text text-anchor="start" x="139.4502" y="-853.9" font-family="Arial" font-size="14.00" fill="#666666">[varchar(255)]</text>
<polygon fill="none" stroke="#000000" points="71,-812.5 71,-842.5 265,-842.5 265,-812.5 71,-812.5"/>
<text text-anchor="start" x="78" y="-823.9" font-family="Arial" font-size="14.00" fill="#000000">snippet_id </text>
<text text-anchor="start" x="145.69" y="-823.9" font-family="Arial" font-size="14.00" fill="#666666">[varchar(10)]</text>
<polygon fill="none" stroke="#000000" points="71,-782.5 71,-812.5 265,-812.5 265,-782.5 71,-782.5"/>
<text text-anchor="start" x="78" y="-793.9" font-family="Arial" font-size="14.00" fill="#000000">user </text>
<text text-anchor="start" x="109.1164" y="-793.9" font-family="Arial" font-size="14.00" fill="#666666">[varchar(20)]</text>
</g>
<!-- comments&#45;&gt;snippets -->
<g id="edge1" class="edge">
<title>comments:snippet_id&#45;&gt;snippets:id</title>
<path fill="none" stroke="#000000" d="M275.0274,-825.9527C299.4299,-817.0425 279.962,-771.5735 265,-740 254.1799,-717.167 231.8201,-726.833 221,-704 202.6337,-665.2426 178.1111,-607.5 221,-607.5"/>
<polygon fill="#000000" stroke="#000000" points="274.883,-825.9749 264.3137,-823.0526 269.9415,-826.7374 265,-827.5 265,-827.5 265,-827.5 269.9415,-826.7374 265.6863,-831.9474 274.883,-825.9749 274.883,-825.9749"/>
<text text-anchor="start" x="7.158" y="-837.5" font-family="Arial" font-size="10.00" fill="#000000">FOREIGN KEY (snippet_id) REFERENCES snippets (id)</text>
</g>
<!-- saveds -->
<g id="node3" class="node">
<title>saveds</title>
<polygon fill="#efefef" stroke="transparent" points="369,-977.5 369,-1012.5 537,-1012.5 537,-977.5 369,-977.5"/>
<polygon fill="none" stroke="#000000" points="369,-977.5 369,-1012.5 537,-1012.5 537,-977.5 369,-977.5"/>
<text text-anchor="start" x="375.8638" y="-990.3" font-family="Arial Bold" font-size="18.00" fill="#000000">saveds</text>
<text text-anchor="start" x="432.8824" y="-990.3" font-family="Arial" font-size="14.00" fill="#000000"> </text>
<text text-anchor="start" x="436.773" y="-990.3" font-family="Arial" font-size="14.00" fill="#666666">[BASE TABLE]</text>
<polygon fill="none" stroke="#000000" points="369,-947.5 369,-977.5 537,-977.5 537,-947.5 369,-947.5"/>
<text text-anchor="start" x="376" y="-958.9" font-family="Arial" font-size="14.00" fill="#000000">id </text>
<text text-anchor="start" x="390.7798" y="-958.9" font-family="Arial" font-size="14.00" fill="#666666">[varchar(10)]</text>
<polygon fill="none" stroke="#000000" points="369,-917.5 369,-947.5 537,-947.5 537,-917.5 369,-917.5"/>
<text text-anchor="start" x="376" y="-928.9" font-family="Arial" font-size="14.00" fill="#000000">created_at </text>
<text text-anchor="start" x="446.028" y="-928.9" font-family="Arial" font-size="14.00" fill="#666666">[datetime(3)]</text>
<polygon fill="none" stroke="#000000" points="369,-887.5 369,-917.5 537,-917.5 537,-887.5 369,-887.5"/>
<text text-anchor="start" x="376" y="-898.9" font-family="Arial" font-size="14.00" fill="#000000">updated_at </text>
<text text-anchor="start" x="449.9326" y="-898.9" font-family="Arial" font-size="14.00" fill="#666666">[datetime(3)]</text>
<polygon fill="none" stroke="#000000" points="369,-857.5 369,-887.5 537,-887.5 537,-857.5 369,-857.5"/>
<text text-anchor="start" x="376" y="-868.9" font-family="Arial" font-size="14.00" fill="#000000">deleted_at </text>
<text text-anchor="start" x="445.2566" y="-868.9" font-family="Arial" font-size="14.00" fill="#666666">[datetime(3)]</text>
<polygon fill="none" stroke="#000000" points="369,-827.5 369,-857.5 537,-857.5 537,-827.5 369,-827.5"/>
<text text-anchor="start" x="376" y="-838.9" font-family="Arial" font-size="14.00" fill="#000000">snippet_id </text>
<text text-anchor="start" x="443.69" y="-838.9" font-family="Arial" font-size="14.00" fill="#666666">[varchar(10)]</text>
<polygon fill="none" stroke="#000000" points="369,-797.5 369,-827.5 537,-827.5 537,-797.5 369,-797.5"/>
<text text-anchor="start" x="376" y="-808.9" font-family="Arial" font-size="14.00" fill="#000000">user </text>
<text text-anchor="start" x="407.1164" y="-808.9" font-family="Arial" font-size="14.00" fill="#666666">[varchar(20)]</text>
</g>
<!-- saveds&#45;&gt;snippets -->
<g id="edge2" class="edge">
<title>saveds:snippet_id&#45;&gt;snippets:id</title>
<path fill="none" stroke="#000000" d="M358.8489,-840.9055C335.9537,-832.0964 359.8599,-788.5651 369,-755 375.9094,-729.6265 392.0906,-729.3735 399,-704 410.2687,-662.618 441.8889,-607.5 399,-607.5"/>
<polygon fill="#000000" stroke="#000000" points="359.1211,-840.9481 368.3017,-846.9455 364.0606,-841.7241 369,-842.5 369,-842.5 369,-842.5 364.0606,-841.7241 369.6983,-838.0545 359.1211,-840.9481 359.1211,-840.9481"/>
<text text-anchor="start" x="376.158" y="-852.5" font-family="Arial" font-size="10.00" fill="#000000">FOREIGN KEY (snippet_id) REFERENCES snippets (id)</text>
</g>
</g>
</svg>
