<?xml version="1.0" encoding="UTF-8" standalone="no"?>
<!DOCTYPE svg PUBLIC "-//W3C//DTD SVG 1.1//EN"
 "http://www.w3.org/Graphics/SVG/1.1/DTD/svg11.dtd">
<!-- Generated by graphviz version 2.40.1 (20161225.0304)
 -->
<!-- Title: users Pages: 1 -->
<svg width="910pt" height="712pt"
 viewBox="0.00 0.00 910.00 712.00" xmlns="http://www.w3.org/2000/svg" xmlns:xlink="http://www.w3.org/1999/xlink">
<g id="graph0" class="graph" transform="scale(1 1) rotate(0) translate(4 708)">
<title>users</title>
<polygon fill="#ffffff" stroke="transparent" points="-4,4 -4,-708 906,-708 906,4 -4,4"/>
<!-- users -->
<g id="node1" class="node">
<title>users</title>
<polygon fill="#efefef" stroke="transparent" points="368,-225.5 368,-260.5 534,-260.5 534,-225.5 368,-225.5"/>
<polygon fill="none" stroke="#000000" points="368,-225.5 368,-260.5 534,-260.5 534,-225.5 368,-225.5"/>
<text text-anchor="start" x="380.3708" y="-238.3" font-family="Arial Bold" font-size="18.00" fill="#000000">users</text>
<text text-anchor="start" x="424.3754" y="-238.3" font-family="Arial" font-size="14.00" fill="#000000"> </text>
<text text-anchor="start" x="428.266" y="-238.3" font-family="Arial" font-size="14.00" fill="#666666">[BASE TABLE]</text>
<polygon fill="none" stroke="#000000" points="368,-195.5 368,-225.5 534,-225.5 534,-195.5 368,-195.5"/>
<text text-anchor="start" x="375" y="-206.9" font-family="Arial" font-size="14.00" fill="#000000">username </text>
<text text-anchor="start" x="441.1248" y="-206.9" font-family="Arial" font-size="14.00" fill="#666666">[varchar(20)]</text>
<polygon fill="none" stroke="#000000" points="368,-165.5 368,-195.5 534,-195.5 534,-165.5 368,-165.5"/>
<text text-anchor="start" x="375" y="-176.9" font-family="Arial" font-size="14.00" fill="#000000">created_at </text>
<text text-anchor="start" x="445.028" y="-176.9" font-family="Arial" font-size="14.00" fill="#666666">[datetime(3)]</text>
<polygon fill="none" stroke="#000000" points="368,-135.5 368,-165.5 534,-165.5 534,-135.5 368,-135.5"/>
<text text-anchor="start" x="374.7518" y="-146.9" font-family="Arial" font-size="14.00" fill="#000000">updated_at </text>
<text text-anchor="start" x="448.6844" y="-146.9" font-family="Arial" font-size="14.00" fill="#666666">[datetime(3)]</text>
<polygon fill="none" stroke="#000000" points="368,-105.5 368,-135.5 534,-135.5 534,-105.5 368,-105.5"/>
<text text-anchor="start" x="375" y="-116.9" font-family="Arial" font-size="14.00" fill="#000000">deleted_at </text>
<text text-anchor="start" x="444.2566" y="-116.9" font-family="Arial" font-size="14.00" fill="#666666">[datetime(3)]</text>
<polygon fill="none" stroke="#000000" points="368,-75.5 368,-105.5 534,-105.5 534,-75.5 368,-75.5"/>
<text text-anchor="start" x="375" y="-86.9" font-family="Arial" font-size="14.00" fill="#000000">email </text>
<text text-anchor="start" x="412.3296" y="-86.9" font-family="Arial" font-size="14.00" fill="#666666">[varchar(191)]</text>
<polygon fill="none" stroke="#000000" points="368,-45.5 368,-75.5 534,-75.5 534,-45.5 368,-45.5"/>
<text text-anchor="start" x="375" y="-56.9" font-family="Arial" font-size="14.00" fill="#000000">password </text>
<text text-anchor="start" x="438.7882" y="-56.9" font-family="Arial" font-size="14.00" fill="#666666">[longtext]</text>
<polygon fill="none" stroke="#000000" stroke-width="3" points="366.5,-44.5 366.5,-262.5 535.5,-262.5 535.5,-44.5 366.5,-44.5"/>
</g>
<!-- comments -->
<g id="node2" class="node">
<title>comments</title>
<polygon fill="#efefef" stroke="transparent" points="69,-610.5 69,-645.5 263,-645.5 263,-610.5 69,-610.5"/>
<polygon fill="none" stroke="#000000" points="69,-610.5 69,-645.5 263,-645.5 263,-610.5 69,-610.5"/>
<text text-anchor="start" x="75.8705" y="-623.3" font-family="Arial Bold" font-size="18.00" fill="#000000">comments</text>
<text text-anchor="start" x="158.8757" y="-623.3" font-family="Arial" font-size="14.00" fill="#000000"> </text>
<text text-anchor="start" x="162.7663" y="-623.3" font-family="Arial" font-size="14.00" fill="#666666">[BASE TABLE]</text>
<polygon fill="none" stroke="#000000" points="69,-580.5 69,-610.5 263,-610.5 263,-580.5 69,-580.5"/>
<text text-anchor="start" x="76" y="-591.9" font-family="Arial" font-size="14.00" fill="#000000">id </text>
<text text-anchor="start" x="90.7798" y="-591.9" font-family="Arial" font-size="14.00" fill="#666666">[varchar(10)]</text>
<polygon fill="none" stroke="#000000" points="69,-550.5 69,-580.5 263,-580.5 263,-550.5 69,-550.5"/>
<text text-anchor="start" x="76" y="-561.9" font-family="Arial" font-size="14.00" fill="#000000">created_at </text>
<text text-anchor="start" x="146.028" y="-561.9" font-family="Arial" font-size="14.00" fill="#666666">[datetime(3)]</text>
<polygon fill="none" stroke="#000000" points="69,-520.5 69,-550.5 263,-550.5 263,-520.5 69,-520.5"/>
<text text-anchor="start" x="76" y="-531.9" font-family="Arial" font-size="14.00" fill="#000000">updated_at </text>
<text text-anchor="start" x="149.9326" y="-531.9" font-family="Arial" font-size="14.00" fill="#666666">[datetime(3)]</text>
<polygon fill="none" stroke="#000000" points="69,-490.5 69,-520.5 263,-520.5 263,-490.5 69,-490.5"/>
<text text-anchor="start" x="76" y="-501.9" font-family="Arial" font-size="14.00" fill="#000000">deleted_at </text>
<text text-anchor="start" x="145.2566" y="-501.9" font-family="Arial" font-size="14.00" fill="#666666">[datetime(3)]</text>
<polygon fill="none" stroke="#000000" points="69,-460.5 69,-490.5 263,-490.5 263,-460.5 69,-460.5"/>
<text text-anchor="start" x="76" y="-471.9" font-family="Arial" font-size="14.00" fill="#000000">comment </text>
<text text-anchor="start" x="137.4502" y="-471.9" font-family="Arial" font-size="14.00" fill="#666666">[varchar(255)]</text>
<polygon fill="none" stroke="#000000" points="69,-430.5 69,-460.5 263,-460.5 263,-430.5 69,-430.5"/>
<text text-anchor="start" x="76" y="-441.9" font-family="Arial" font-size="14.00" fill="#000000">snippet_id </text>
<text text-anchor="start" x="143.69" y="-441.9" font-family="Arial" font-size="14.00" fill="#666666">[varchar(10)]</text>
<polygon fill="none" stroke="#000000" points="69,-400.5 69,-430.5 263,-430.5 263,-400.5 69,-400.5"/>
<text text-anchor="start" x="76" y="-411.9" font-family="Arial" font-size="14.00" fill="#000000">user </text>
<text text-anchor="start" x="107.1164" y="-411.9" font-family="Arial" font-size="14.00" fill="#666666">[varchar(20)]</text>
</g>
<!-- comments&#45;&gt;users -->
<g id="edge1" class="edge">
<title>comments:user&#45;&gt;users:username</title>
<path fill="none" stroke="#000000" d="M273.0647,-414.7577C358.6043,-401.3393 269.2318,-210.5 368,-210.5"/>
<polygon fill="#000000" stroke="#000000" points="272.9729,-414.7644 262.669,-411.0122 267.9865,-415.1322 263,-415.5 263,-415.5 263,-415.5 267.9865,-415.1322 263.331,-419.9878 272.9729,-414.7644 272.9729,-414.7644"/>
<text text-anchor="start" x="7.276" y="-425.5" font-family="Arial" font-size="10.00" fill="#000000">FOREIGN KEY (user) REFERENCES users (username)</text>
</g>
<!-- saveds -->
<g id="node3" class="node">
<title>saveds</title>
<polygon fill="#efefef" stroke="transparent" points="367,-595.5 367,-630.5 535,-630.5 535,-595.5 367,-595.5"/>
<polygon fill="none" stroke="#000000" points="367,-595.5 367,-630.5 535,-630.5 535,-595.5 367,-595.5"/>
<text text-anchor="start" x="373.8638" y="-608.3" font-family="Arial Bold" font-size="18.00" fill="#000000">saveds</text>
<text text-anchor="start" x="430.8824" y="-608.3" font-family="Arial" font-size="14.00" fill="#000000"> </text>
<text text-anchor="start" x="434.773" y="-608.3" font-family="Arial" font-size="14.00" fill="#666666">[BASE TABLE]</text>
<polygon fill="none" stroke="#000000" points="367,-565.5 367,-595.5 535,-595.5 535,-565.5 367,-565.5"/>
<text text-anchor="start" x="374" y="-576.9" font-family="Arial" font-size="14.00" fill="#000000">id </text>
<text text-anchor="start" x="388.7798" y="-576.9" font-family="Arial" font-size="14.00" fill="#666666">[varchar(10)]</text>
<polygon fill="none" stroke="#000000" points="367,-535.5 367,-565.5 535,-565.5 535,-535.5 367,-535.5"/>
<text text-anchor="start" x="374" y="-546.9" font-family="Arial" font-size="14.00" fill="#000000">created_at </text>
<text text-anchor="start" x="444.028" y="-546.9" font-family="Arial" font-size="14.00" fill="#666666">[datetime(3)]</text>
<polygon fill="none" stroke="#000000" points="367,-505.5 367,-535.5 535,-535.5 535,-505.5 367,-505.5"/>
<text text-anchor="start" x="374" y="-516.9" font-family="Arial" font-size="14.00" fill="#000000">updated_at </text>
<text text-anchor="start" x="447.9326" y="-516.9" font-family="Arial" font-size="14.00" fill="#666666">[datetime(3)]</text>
<polygon fill="none" stroke="#000000" points="367,-475.5 367,-505.5 535,-505.5 535,-475.5 367,-475.5"/>
<text text-anchor="start" x="374" y="-486.9" font-family="Arial" font-size="14.00" fill="#000000">deleted_at </text>
<text text-anchor="start" x="443.2566" y="-486.9" font-family="Arial" font-size="14.00" fill="#666666">[datetime(3)]</text>
<polygon fill="none" stroke="#000000" points="367,-445.5 367,-475.5 535,-475.5 535,-445.5 367,-445.5"/>
<text text-anchor="start" x="374" y="-456.9" font-family="Arial" font-size="14.00" fill="#000000">snippet_id </text>
<text text-anchor="start" x="441.69" y="-456.9" font-family="Arial" font-size="14.00" fill="#666666">[varchar(10)]</text>
<polygon fill="none" stroke="#000000" points="367,-415.5 367,-445.5 535,-445.5 535,-415.5 367,-415.5"/>
<text text-anchor="start" x="374" y="-426.9" font-family="Arial" font-size="14.00" fill="#000000">user </text>
<text text-anchor="start" x="405.1164" y="-426.9" font-family="Arial" font-size="14.00" fill="#666666">[varchar(20)]</text>
</g>
<!-- saveds&#45;&gt;users -->
<g id="edge2" class="edge">
<title>saveds:user&#45;&gt;users:username</title>
<path fill="none" stroke="#000000" d="M451.6748,-405.216C458.5312,-355.7167 515.7058,-361.0244 534,-307 547.7561,-266.377 576.8889,-210.5 534,-210.5"/>
<polygon fill="#000000" stroke="#000000" points="451.6548,-405.5215 446.5097,-415.2053 451.3274,-410.5107 451,-415.5 451,-415.5 451,-415.5 451.3274,-410.5107 455.4903,-415.7947 451.6548,-405.5215 451.6548,-405.5215"/>
<text text-anchor="start" x="195.276" y="-399.5" font-family="Arial" font-size="10.00" fill="#000000">FOREIGN KEY (user) REFERENCES users (username)</text>
</g>
<!-- snippets -->
<g id="node4" class="node">
<title>snippets</title>
<polygon fill="#efefef" stroke="transparent" points="639,-625.5 639,-660.5 817,-660.5 817,-625.5 639,-625.5"/>
<polygon fill="none" stroke="#000000" points="639,-625.5 639,-660.5 817,-660.5 817,-625.5 639,-625.5"/>
<text text-anchor="start" x="645.8625" y="-638.3" font-family="Arial Bold" font-size="18.00" fill="#000000">snippets</text>
<text text-anchor="start" x="712.8837" y="-638.3" font-family="Arial" font-size="14.00" fill="#000000"> </text>
<text text-anchor="start" x="716.7743" y="-638.3" font-family="Arial" font-size="14.00" fill="#666666">[BASE TABLE]</text>
<polygon fill="none" stroke="#000000" points="639,-595.5 639,-625.5 817,-625.5 817,-595.5 639,-595.5"/>
<text text-anchor="start" x="646" y="-606.9" font-family="Arial" font-size="14.00" fill="#000000">id </text>
<text text-anchor="start" x="660.7798" y="-606.9" font-family="Arial" font-size="14.00" fill="#666666">[varchar(10)]</text>
<polygon fill="none" stroke="#000000" points="639,-565.5 639,-595.5 817,-595.5 817,-565.5 639,-565.5"/>
<text text-anchor="start" x="646" y="-576.9" font-family="Arial" font-size="14.00" fill="#000000">created_at </text>
<text text-anchor="start" x="716.028" y="-576.9" font-family="Arial" font-size="14.00" fill="#666666">[datetime(3)]</text>
<polygon fill="none" stroke="#000000" points="639,-535.5 639,-565.5 817,-565.5 817,-535.5 639,-535.5"/>
<text text-anchor="start" x="646" y="-546.9" font-family="Arial" font-size="14.00" fill="#000000">updated_at </text>
<text text-anchor="start" x="719.9326" y="-546.9" font-family="Arial" font-size="14.00" fill="#666666">[datetime(3)]</text>
<polygon fill="none" stroke="#000000" points="639,-505.5 639,-535.5 817,-535.5 817,-505.5 639,-505.5"/>
<text text-anchor="start" x="646" y="-516.9" font-family="Arial" font-size="14.00" fill="#000000">deleted_at </text>
<text text-anchor="start" x="715.2566" y="-516.9" font-family="Arial" font-size="14.00" fill="#666666">[datetime(3)]</text>
<polygon fill="none" stroke="#000000" points="639,-475.5 639,-505.5 817,-505.5 817,-475.5 639,-475.5"/>
<text text-anchor="start" x="646" y="-486.9" font-family="Arial" font-size="14.00" fill="#000000">title </text>
<text text-anchor="start" x="671.6676" y="-486.9" font-family="Arial" font-size="14.00" fill="#666666">[varchar(50)]</text>
<polygon fill="none" stroke="#000000" points="639,-445.5 639,-475.5 817,-475.5 817,-445.5 639,-445.5"/>
<text text-anchor="start" x="646" y="-456.9" font-family="Arial" font-size="14.00" fill="#000000">descb </text>
<text text-anchor="start" x="687.2384" y="-456.9" font-family="Arial" font-size="14.00" fill="#666666">[longtext]</text>
<polygon fill="none" stroke="#000000" points="639,-415.5 639,-445.5 817,-445.5 817,-415.5 639,-415.5"/>
<text text-anchor="start" x="646" y="-426.9" font-family="Arial" font-size="14.00" fill="#000000">snippet </text>
<text text-anchor="start" x="695.0182" y="-426.9" font-family="Arial" font-size="14.00" fill="#666666">[longtext]</text>
<polygon fill="none" stroke="#000000" points="639,-385.5 639,-415.5 817,-415.5 817,-385.5 639,-385.5"/>
<text text-anchor="start" x="646" y="-396.9" font-family="Arial" font-size="14.00" fill="#000000">user </text>
<text text-anchor="start" x="677.1164" y="-396.9" font-family="Arial" font-size="14.00" fill="#666666">[varchar(20)]</text>
</g>
<!-- snippets&#45;&gt;users -->
<g id="edge3" class="edge">
<title>snippets:user&#45;&gt;users:username</title>
<path fill="none" stroke="#000000" d="M629.0021,-399.7345C548.7932,-386.6601 626.9009,-210.5 534,-210.5"/>
<polygon fill="#000000" stroke="#000000" points="629.0292,-399.7365 638.6564,-404.9869 634.0146,-400.1182 639,-400.5 639,-400.5 639,-400.5 634.0146,-400.1182 639.3436,-396.0131 629.0292,-399.7365 629.0292,-399.7365"/>
<text text-anchor="start" x="646.276" y="-410.5" font-family="Arial" font-size="10.00" fill="#000000">FOREIGN KEY (user) REFERENCES users (username)</text>
</g>
</g>
</svg>
